<svg width="108" height="40" viewBox="0 0 108 40" fill="none" xmlns="http://www.w3.org/2000/svg">
<path fill-rule="evenodd" clip-rule="evenodd" d="M10.8629 15.9138L8.35462 14.3657C6.78309 13.3886 5.66405 12.4279 4.99789 11.4842C4.33173 10.5382 4 9.45095 4 8.2202C4 6.37683 4.63016 4.87909 5.88971 3.72698C7.14965 2.57527 8.78738 2 10.801 2C12.7278 2 14.4948 2.55207 16.1024 3.6566V7.45619C14.4387 5.83105 12.6492 5.01868 10.734 5.01868C9.6552 5.01868 8.76996 5.27191 8.07748 5.77718C7.38228 6.28128 7.03508 6.92889 7.03508 7.7165C7.03508 8.41602 7.29248 9.07111 7.80613 9.68176C8.32095 10.2924 9.14155 10.9353 10.2714 11.612L12.7886 13.133C15.5957 14.8454 17 17.0226 17 19.6603C17 21.539 16.3811 23.0655 15.1455 24.2392C13.9073 25.4133 12.3009 26 10.3225 26C8.0469 26 5.97487 25.2891 4.10683 23.8657V19.6095C5.88739 21.9004 7.94742 23.0474 10.2892 23.0474C11.3216 23.0474 12.1817 22.7529 12.8695 22.1689C13.5562 21.585 13.9003 20.8525 13.9003 19.9721C13.9003 18.5463 12.8869 17.1944 10.8629 15.9138" fill="white"/>
<path fill-rule="evenodd" clip-rule="evenodd" d="M34.0512 3H38L29.6444 13.8345V26H26.3355V13.8345L18 3H21.9033L27.9433 10.921L34.0512 3Z" fill="white"/>
<path fill-rule="evenodd" clip-rule="evenodd" d="M47.0664 15.76H44.1303V23.078H47.2227C48.938 23.078 50.1029 22.9374 50.714 22.6566C51.327 22.3761 51.8192 21.937 52.1901 21.3429C52.5617 20.7492 52.7475 20.1096 52.7475 19.4267C52.7475 18.7229 52.5503 18.0779 52.1585 17.4943C51.7659 16.9106 51.2089 16.4749 50.4881 16.1891C49.7647 15.9025 48.6242 15.76 47.0664 15.76M46.8257 5.92434H44.1303V12.8368H46.2143C47.8865 12.8368 49.0738 12.5019 49.7784 11.8329C50.4855 11.1635 50.8376 10.2964 50.8376 9.23224C50.8376 7.02672 49.4995 5.92434 46.8257 5.92434M48.4214 26H41V3H46.7386C48.5447 3 49.9553 3.25532 50.969 3.76595C51.983 4.27503 52.7571 4.97724 53.2895 5.87065C53.8222 6.76484 54.0901 7.79807 54.0901 8.96997C54.0901 11.2284 52.9786 12.8464 50.7593 13.8225C52.3597 14.1408 53.632 14.8333 54.5787 15.8979C55.5261 16.9647 56 18.2382 56 19.7222C56 20.8968 55.7115 21.9474 55.1365 22.8698C54.561 23.7922 53.717 24.545 52.6018 25.1274C51.4881 25.7099 50.0948 26 48.4214 26" fill="white"/>
<path fill-rule="evenodd" clip-rule="evenodd" d="M86.6903 23.7745C87.4137 23.7745 88.0476 23.5777 88.5743 23.1876C89.1313 22.7752 89.4144 22.2663 89.4144 21.6728C89.4144 21.092 89.2316 20.5994 88.8689 20.2089C88.5407 19.8531 87.8758 19.3709 86.8353 18.7316C84.8714 17.5489 83.5749 16.5363 82.9812 15.7178C82.4043 14.9218 82.1109 14.0441 82.1109 13.109C82.1109 11.8904 82.5359 10.9248 83.4081 10.1575C84.2822 9.38977 85.4306 9 86.8227 9C88.2412 9 89.7212 9.43639 91.2242 10.279V12.814C89.5506 11.7819 88.1639 11.25 87.0312 11.25C86.3541 11.25 85.7948 11.4139 85.3656 11.7368C84.9088 12.0811 84.6763 12.5434 84.6763 13.1109C84.6763 13.5935 84.8771 14.0528 85.2703 14.4747C85.6322 14.861 86.2355 15.3043 87.1161 15.8309C87.1138 15.829 88.2274 16.5137 88.2274 16.5137C90.7311 18.0464 92 19.7446 92 21.5601C92 22.8662 91.5432 23.9075 90.5972 24.7436C89.6554 25.577 88.4187 26 86.9225 26C86.0232 26 85.2156 25.8964 84.5164 25.6897C83.8526 25.4937 83.0026 25.1261 82 24.6091V21.8199C82.7291 22.3289 83.4724 22.7794 84.2256 23.1203C85.1992 23.5597 86.0071 23.7745 86.6903 23.7745" fill="white"/>
<path fill-rule="evenodd" clip-rule="evenodd" d="M101.574 23.1875C102.131 22.7759 102.414 22.2662 102.414 21.6727C102.414 21.0923 102.231 20.5993 101.869 20.2088C101.541 19.853 100.875 19.3707 99.8353 18.7314C97.8696 17.5491 96.574 16.5345 95.9808 15.7175C95.4043 14.9216 95.1113 14.0438 95.1113 13.1091C95.1113 11.8901 95.5363 10.9248 96.4084 10.1571C97.2817 9.38939 98.4296 9 99.8212 9C101.239 9 102.72 9.43602 104.224 10.2786V12.8137C102.55 11.7816 101.163 11.2496 100.031 11.2496C99.3553 11.2496 98.7941 11.4136 98.3653 11.7368C97.9071 12.0811 97.6757 12.5435 97.6757 13.1106C97.6757 13.5936 97.875 14.0522 98.2709 14.4745C98.6319 14.8608 99.2359 15.3041 100.115 15.831C100.113 15.8287 101.227 16.5135 101.227 16.5135C103.731 18.0463 105 19.7445 105 21.56C105 22.8661 104.542 23.9074 103.597 24.7435C102.656 25.577 101.419 26 99.9233 26C99.0248 26 98.215 25.8964 97.5165 25.6897C96.8521 25.4937 96.0018 25.1261 95 24.609V21.8198C95.7291 22.3288 96.4727 22.7798 97.2255 23.1202C98.1856 23.5536 99.0164 23.7745 99.6896 23.7745C100.413 23.7745 101.047 23.5777 101.574 23.1875" fill="white"/>
<path fill-rule="evenodd" clip-rule="evenodd" d="M4.24505 30.9916C4.23458 31.584 4.61455 31.7662 5.08065 31.7662C5.34916 31.7662 5.75682 31.6015 5.75682 31.1814C5.75682 30.854 5.46737 30.7262 5.23128 30.6605L4.66049 30.5046C4.36057 30.4183 4.08395 30.2586 4.08395 29.8103C4.08395 29.5278 4.24505 29 4.96514 29C5.46973 29 5.91387 29.3057 5.91016 29.8939H5.66732C5.65212 29.4563 5.33024 29.2331 4.96851 29.2331C4.63482 29.2331 4.32814 29.3791 4.32814 29.8065C4.32814 30.076 4.50715 30.1897 4.71486 30.246L5.33734 30.4183C5.70008 30.5289 6 30.7053 6 31.1772C6 31.3741 5.9284 32 5.02222 32C4.41731 32 3.97384 31.6935 4.0012 30.9916H4.24505Z" fill="white"/>
<path fill-rule="evenodd" clip-rule="evenodd" d="M7 29H7.24439V30.8182C7.24065 31.5022 7.52651 31.7614 7.9983 31.7614C8.47383 31.7614 8.75867 31.5022 8.75425 30.8182V29H9V30.881C9 31.484 8.71618 32 7.9983 32C7.2845 32 7 31.484 7 30.881V29Z" fill="white"/>
<path fill-rule="evenodd" clip-rule="evenodd" d="M11.2575 30.4703H12.1409C12.4971 30.4703 12.7425 30.2694 12.7425 29.8574C12.7425 29.4453 12.4971 29.2437 12.1409 29.2437H11.2575V30.4703ZM11 29H12.1975C12.6819 29 13 29.315 13 29.8574C13 30.399 12.6819 30.7143 12.1975 30.7143H11.2575V32H11V29Z" fill="white"/>
<path fill-rule="evenodd" clip-rule="evenodd" d="M15 29H16.9814V29.2437H15.2743V30.3273H16.8727V30.5721H15.2743V31.7571H17V32H15V29Z" fill="white"/>
<path fill-rule="evenodd" clip-rule="evenodd" d="M18.2416 30.4245H19.1432C19.4394 30.4245 19.6904 30.2067 19.6904 29.8402C19.6904 29.475 19.5064 29.244 19.1432 29.244H18.2416V30.4245ZM18 29H19.1623C19.5815 29 19.9327 29.2397 19.9327 29.7816C19.9327 30.1595 19.7658 30.4701 19.4394 30.5469V30.5545C19.7698 30.6056 19.8666 30.8742 19.8834 31.2307C19.8941 31.4367 19.8941 31.8491 20 32H19.7343C19.6736 31.8827 19.6736 31.6593 19.6666 31.5333C19.6452 31.1146 19.616 30.6476 19.1583 30.6674H18.2416V32H18V29Z" fill="white"/>
<path fill-rule="evenodd" clip-rule="evenodd" d="M21.8904 30.7651L21 29H21.2556L22.001 30.5214L22.7426 29H23L22.1057 30.7651V32H21.8904V30.7651Z" fill="white"/>
<path fill-rule="evenodd" clip-rule="evenodd" d="M24.8399 30.8229H26.1473L25.5051 29.2853L24.8399 30.8229ZM25.3416 29H25.697L27 32H26.6609L26.2549 31.067H24.7424L24.3405 32H24L25.3416 29Z" fill="white"/>
<path fill-rule="evenodd" clip-rule="evenodd" d="M30.6315 29.9308C30.5181 29.4875 30.0867 29.2331 29.595 29.2331C28.7018 29.2331 28.3212 29.8703 28.3212 30.4992C28.3212 31.1281 28.7018 31.7662 29.595 31.7662C30.2201 31.7662 30.6176 31.3555 30.6783 30.8418H31C30.9108 31.5487 30.3852 32 29.595 32C28.5305 32 28 31.2859 28 30.4992C28 29.7129 28.5305 29 29.595 29C30.2339 29 30.8684 29.3262 30.9527 29.9308H30.6315Z" fill="white"/>
<path fill-rule="evenodd" clip-rule="evenodd" d="M32 29H32.2432V30.3023H33.7575V29H34V32H33.7575V30.5468H32.2432V32H32V29Z" fill="white"/>
<path fill-rule="evenodd" clip-rule="evenodd" d="M36 29H38V29.2437H37.1201V32H36.8799V29.2437H36V29Z" fill="white"/>
<path fill-rule="evenodd" clip-rule="evenodd" d="M43.2443 31.7571H44.0818C44.4456 31.7607 44.7571 31.6185 44.7571 31.1387C44.7571 30.7567 44.5101 30.5594 44.0818 30.5594H43.2443V31.7571ZM43.2443 30.3146H44.0818C44.473 30.3146 44.6588 30.0887 44.6588 29.8071C44.6588 29.4334 44.4622 29.2437 44.0818 29.2437H43.2443V30.3146ZM43 29H44.0818C44.5125 29 44.9034 29.1763 44.9034 29.7349C44.9034 30.0511 44.7236 30.3411 44.4584 30.4077V30.4152C44.7885 30.4667 45 30.7567 45 31.147C45 31.4323 44.9142 32 44.0818 32H43V29Z" fill="white"/>
<path fill-rule="evenodd" clip-rule="evenodd" d="M46 29H46.2446V30.8182C46.2419 31.5022 46.5262 31.7614 46.9985 31.7614C47.4734 31.7614 47.7588 31.5022 47.7551 30.8182V29H48V30.881C48 31.484 47.7153 32 46.9985 32C46.2847 32 46 31.484 46 30.881V29Z" fill="white"/>
<path fill-rule="evenodd" clip-rule="evenodd" d="M49.1395 32H49.8605V29H49.1395V32Z" fill="white"/>
<path fill-rule="evenodd" clip-rule="evenodd" d="M52 29H52.291V31.7571H54V32H52V29Z" fill="white"/>
<path fill-rule="evenodd" clip-rule="evenodd" d="M55.237 31.7571H55.7405C56.4539 31.7607 56.763 31.3954 56.763 30.4996C56.763 29.6042 56.4539 29.2393 55.7405 29.2437H55.237V31.7571ZM55 29H55.8585C56.6063 29.0218 57 29.5178 57 30.4996C57 31.483 56.6063 31.9786 55.8585 32H55V29Z" fill="white"/>
<path fill-rule="evenodd" clip-rule="evenodd" d="M58 29H59.9803V29.2437H58.2734V30.3273H59.8724V30.5721H58.2734V31.7571H60V32H58V29Z" fill="white"/>
<path fill-rule="evenodd" clip-rule="evenodd" d="M62.2412 30.4245H63.1436C63.4388 30.4245 63.6904 30.2067 63.6904 29.8402C63.6904 29.475 63.5058 29.244 63.1436 29.244H62.2412V30.4245ZM62 29H63.162C63.5812 29 63.9327 29.2397 63.9327 29.7816C63.9327 30.1595 63.7655 30.4701 63.4388 30.5469V30.5545C63.7695 30.6056 63.865 30.8742 63.8834 31.2307C63.8938 31.4367 63.8938 31.8491 64 32H63.734C63.673 31.8827 63.673 31.6593 63.6666 31.5333C63.6448 31.1146 63.6157 30.6476 63.1573 30.6674H62.2412V32H62V29Z" fill="white"/>
<path fill-rule="evenodd" clip-rule="evenodd" d="M65.2444 30.9916C65.234 31.584 65.6137 31.7662 66.0783 31.7662C66.3482 31.7662 66.7564 31.6015 66.7564 31.1814C66.7564 30.854 66.4648 30.7262 66.229 30.6605L65.6597 30.5046C65.358 30.4183 65.0829 30.2586 65.0829 29.8103C65.0829 29.5278 65.2444 29 65.9648 29C66.4699 29 66.9142 29.3057 66.9108 29.8939H66.6672C66.6533 29.4563 66.331 29.2331 65.9681 29.2331C65.6353 29.2331 65.3262 29.3791 65.3262 29.8065C65.3262 30.076 65.5063 30.1897 65.7134 30.246L66.3371 30.4183C66.6986 30.5289 67 30.7053 67 31.1772C67 31.3741 66.9277 32 66.0222 32C65.4164 32 64.9708 31.6935 65.0015 30.9916H65.2444Z" fill="white"/>
<path fill-rule="evenodd" clip-rule="evenodd" d="M71.8388 30.8229H73.1463L72.505 29.2853L71.8388 30.8229ZM72.3405 29H72.6955L74 32H73.659L73.2534 31.067H71.7409L71.3415 32H71L72.3405 29Z" fill="white"/>
<path fill-rule="evenodd" clip-rule="evenodd" d="M75.2444 30.9916C75.2339 31.584 75.6141 31.7662 76.0803 31.7662C76.3477 31.7662 76.7562 31.6015 76.7562 31.1814C76.7562 30.854 76.4666 30.7262 76.2299 30.6605L75.661 30.5046C75.3602 30.4183 75.0837 30.2586 75.0837 29.8103C75.0837 29.5278 75.2444 29 75.9642 29C76.4693 29 76.9129 29.3057 76.9102 29.8939H76.6658C76.6516 29.4563 76.3288 29.2331 75.9692 29.2331C75.6347 29.2331 75.3271 29.3791 75.3271 29.8065C75.3271 30.076 75.507 30.1897 75.7143 30.246L76.3369 30.4183C76.6995 30.5289 77 30.7053 77 31.1772C77 31.3741 76.9291 32 76.0219 32C75.4172 32 74.9729 31.6935 75.0013 30.9916H75.2444Z" fill="white"/>
<path fill-rule="evenodd" clip-rule="evenodd" d="M79.2461 30.9916C79.235 31.584 79.6143 31.7662 80.0808 31.7662C80.3491 31.7662 80.7571 31.6015 80.7571 31.1814C80.7571 30.854 80.4673 30.7262 80.2312 30.6605L79.6606 30.5046C79.36 30.4183 79.0847 30.2586 79.0847 29.8103C79.0847 29.5278 79.2461 29 79.9657 29C80.4707 29 80.9145 29.3057 80.9112 29.8939H80.6669C80.6531 29.4563 80.3308 29.2331 79.968 29.2331C79.6349 29.2331 79.3275 29.3791 79.3275 29.8065C79.3275 30.076 79.5062 30.1897 79.715 30.246L80.3379 30.4183C80.7004 30.5289 81 30.7053 81 31.1772C81 31.3741 80.9287 32 80.0227 32C79.4177 32 78.9735 31.6935 79.0012 30.9916H79.2461Z" fill="white"/>
<path fill-rule="evenodd" clip-rule="evenodd" d="M83.5023 31.7662C84.3388 31.7662 84.6969 31.1281 84.6969 30.4992C84.6969 29.8703 84.3388 29.2331 83.5023 29.2331C82.6608 29.2331 82.3035 29.8703 82.3035 30.4992C82.3035 31.1281 82.6608 31.7662 83.5023 31.7662M83.5023 29C84.5006 29 85 29.7129 85 30.4992C85 31.2859 84.5006 32 83.5023 32C82.4994 32 82 31.2859 82 30.4992C82 29.7129 82.4994 29 83.5023 29" fill="white"/>
<path fill-rule="evenodd" clip-rule="evenodd" d="M88.6307 29.9308C88.5174 29.4875 88.0865 29.2331 87.595 29.2331C86.7021 29.2331 86.3207 29.8703 86.3207 30.4992C86.3207 31.1281 86.7021 31.7662 87.595 31.7662C88.2194 31.7662 88.6169 31.3555 88.678 30.8418H89C88.9099 31.5487 88.3845 32 87.595 32C86.5308 32 86 31.2859 86 30.4992C86 29.7129 86.5308 29 87.595 29C88.2333 29 88.8666 29.3262 88.9514 29.9308H88.6307Z" fill="white"/>
<path fill-rule="evenodd" clip-rule="evenodd" d="M89.1395 32H89.8605V29H89.1395V32Z" fill="white"/>
<path fill-rule="evenodd" clip-rule="evenodd" d="M91.8381 30.8229H93.1469L92.5055 29.2853L91.8381 30.8229ZM92.3408 29H92.696L94 32H93.6589L93.2536 31.067H91.742L91.3411 32H91L92.3408 29Z" fill="white"/>
<path fill-rule="evenodd" clip-rule="evenodd" d="M95 29H97V29.2437H96.1195V32H95.8798V29.2437H95V29Z" fill="white"/>
<path fill-rule="evenodd" clip-rule="evenodd" d="M98.1395 32H98.8605V29H98.1395V32Z" fill="white"/>
<path fill-rule="evenodd" clip-rule="evenodd" d="M101.502 31.7662C102.339 31.7662 102.695 31.1281 102.695 30.4992C102.695 29.8703 102.339 29.2331 101.502 29.2331C100.66 29.2331 100.303 29.8703 100.303 30.4992C100.303 31.1281 100.66 31.7662 101.502 31.7662M101.502 29C102.5 29 103 29.7129 103 30.4992C103 31.2859 102.5 32 101.502 32C100.499 32 100 31.2859 100 30.4992C100 29.7129 100.499 29 101.502 29" fill="white"/>
<path fill-rule="evenodd" clip-rule="evenodd" d="M104 29H104.27L105.75 31.5365H105.757V29H106V32H105.729L104.249 29.4628H104.242V32H104V29Z" fill="white"/>
<path fill-rule="evenodd" clip-rule="evenodd" d="M2 22C2 22 4.1523 29.6969 14.2355 25.9913C14.2355 25.9913 15.7148 25.4714 19 24.0295C12.4154 25.4513 5.02599 25.9147 2 22" fill="white"/>
<path fill-rule="evenodd" clip-rule="evenodd" d="M106 25C98.2122 17.0205 83.8546 11.7514 83.8546 11.7514C78.5475 9.80377 73.2749 9.1341 69 9L70.5292 12.625C77.691 12.9843 83.1826 14.3883 83.1826 14.3883C95.437 17.3975 106 25 106 25" fill="white"/>
<path fill-rule="evenodd" clip-rule="evenodd" d="M58.8228 9.59241C43.9699 12.2543 31.2655 18.852 31.2655 18.852C25.7612 21.7652 21.7427 23.7281 19 25C25.3764 23.5456 30.9875 21.125 30.9875 21.125C46.0911 15.3396 56.6338 13.5359 56.6338 13.5359C59.6211 12.9066 62.6841 12.6382 65.6078 12.5915L67 9.00178C62.1168 8.9623 58.8228 9.59241 58.8228 9.59241" fill="white"/>
<path fill-rule="evenodd" clip-rule="evenodd" d="M71.3995 16.1834L67.7582 7.78425L64.3923 16.1834H71.3995ZM67.7563 0L79 26H75.7025L72.7093 19.1262H63.1222L60.3099 26H57L67.7563 0Z" fill="white"/>
<path fill-rule="evenodd" clip-rule="evenodd" d="M40 36H40.9503L42.0138 39.1317H42.0244L43.0611 36H44V40H43.3581V36.9132H43.3471L42.2781 40H41.7219L40.6533 36.9132H40.6427V40H40V36Z" fill="white"/>
<path fill-rule="evenodd" clip-rule="evenodd" d="M46 36H47.9732V36.6054H46.4797V37.6531H47.8617V38.2242H46.4797V39.395H48V40H46V36Z" fill="white"/>
<path fill-rule="evenodd" clip-rule="evenodd" d="M50 36H50.9503L52.0138 39.1317H52.0244L53.0611 36H54V40H53.3581V36.9132H53.3471L52.2781 40H51.7219L50.6533 36.9132H50.6427V40H50V36Z" fill="white"/>
<path fill-rule="evenodd" clip-rule="evenodd" d="M55.6343 39.4284H56.7564C57.1421 39.4284 57.3657 39.1989 57.3657 38.7958C57.3657 38.4036 57.1421 38.1794 56.7564 38.1794H55.6343V39.4284ZM55.6343 37.6755H56.6703C56.9748 37.6755 57.2035 37.479 57.2035 37.1207C57.2035 36.7171 57.0154 36.572 56.6703 36.572H55.6343V37.6755ZM55 36H56.7616C57.4115 36 57.8378 36.3249 57.8378 36.9919C57.8378 37.395 57.6502 37.6865 57.3198 37.8435V37.8545C57.7617 37.9609 58 38.3416 58 38.8855C58 39.5124 57.6043 40 56.6652 40H55V36Z" fill="white"/>
<path fill-rule="evenodd" clip-rule="evenodd" d="M60 36H61.9732V36.6054H60.4797V37.6531H61.8617V38.2242H60.4797V39.395H62V40H60V36Z" fill="white"/>
<path fill-rule="evenodd" clip-rule="evenodd" d="M64.6206 37.8211H65.6388C66.0313 37.8211 66.2449 37.6025 66.2449 37.1827C66.2449 36.6727 65.9518 36.572 65.629 36.572H64.6206V37.8211ZM64 36H65.6937C66.4683 36 66.8659 36.4036 66.8659 37.0811C66.8659 37.8488 66.3938 38.0448 66.2796 38.0897V38.1011C66.4932 38.135 66.8063 38.3139 66.8063 38.947C66.8063 39.4117 66.8659 39.8378 67 40H66.3342C66.2399 39.8263 66.2399 39.6074 66.2399 39.4117C66.2399 38.678 66.1058 38.353 65.5347 38.353H64.6206V40H64V36Z" fill="white"/>
<path fill-rule="evenodd" clip-rule="evenodd" d="M32.4661 37.963C20.3573 37.7965 10.0002 37.3842 10.0002 37.3842C5.5124 37.2021 2.23622 37.0795 0 37C5.19792 37.0908 9.77302 37.2422 9.77302 37.2422C22.086 37.6039 30.6815 37.7165 30.6815 37.7165C33.1166 37.7557 35.614 37.7726 37.9977 37.7753L38 37.9999C34.019 38.0021 32.4661 37.963 32.4661 37.963" fill="white"/>
<path fill-rule="evenodd" clip-rule="evenodd" d="M75.545 37.963C87.6497 37.7965 98.0029 37.3842 98.0029 37.3842C102.489 37.2021 105.765 37.0795 108 37C102.804 37.0908 98.2303 37.2422 98.2303 37.2422C85.9212 37.6039 77.329 37.7165 77.329 37.7165C74.8944 37.7557 72.3982 37.7726 70.0153 37.7753L70 37.9999C73.9796 38.0021 75.545 37.963 75.545 37.963" fill="white"/>
</svg>
