<svg width="153" height="19" viewBox="0 0 153 19" fill="none" xmlns="http://www.w3.org/2000/svg">
<path fill-rule="evenodd" clip-rule="evenodd" d="M56.3676 8.76471C58.4169 8.8185 59.1181 8.83691 60.1931 8.66912C62.2496 8.34738 63.0914 7.0634 63.0914 5.34155C63.0914 3.41396 62.0313 2.24859 58.6353 2.24859H56.081V8.75721L56.3676 8.76471ZM70.813 17.7547L70.6384 18.6502C70.626 18.6642 70.6095 18.6766 70.5922 18.688C70.282 18.865 69.0863 19 68.2148 19C64.0076 19 62.4853 16.7679 58.7858 10.8296C57.8513 10.9152 56.9525 10.9152 56.081 10.8576V18.6502H51.3669V0.145692C51.8562 0.145692 53.8792 0.103066 55.7366 0.0639265L55.7366 0.0639257C57.3131 0.0307066 58.7703 0 59.0695 0C62.4679 0 64.6567 0.204998 66.2459 1.4593C67.6781 2.59838 68.0204 3.9696 68.0204 5.13745C68.0204 7.32516 66.6511 9.223 63.3775 10.0988C65.0147 13.0946 67.1068 15.4708 68.6844 16.7679C69.2906 17.2667 70.1059 17.5704 70.813 17.7547ZM110.261 9.22559C110.261 13.9559 113.531 16.7227 117.267 16.7227C119.709 16.7227 123.757 15.2226 123.757 9.80289C123.757 5.0165 120.423 2.25132 116.711 2.25132C112.356 2.25132 110.261 5.56448 110.261 9.22559ZM125.217 2.19279C126.516 3.17332 128.706 5.12462 128.782 9.10127C128.911 15.7722 123.056 19 116.756 19C108.845 19 105.302 13.9259 105.302 9.60128C105.302 6.67185 106.584 4.17821 109.072 2.39284C111.825 0.419535 114.952 0 117.7 0C118.442 0 122.559 0.145542 125.217 2.19279ZM74.482 18.6346H79.2518V0.365385H74.482V18.6346ZM102.753 1.92144V0.365385H85.3634L84.8627 2.7861H96.0904L84.0216 17.02L84.1532 18.6346H102.603L103.101 16.2138H90.6817L102.753 1.92144ZM137.151 0.365385L150.144 12.7808L149.896 0.365385H153L152.969 18.6346H149.727L136.411 5.60573L136.659 18.6346H133.554L133.648 0.365385H137.151ZM14.0538 7.74197V0.365385H18.7122V18.6346H14.0538V10.0757H4.6585V18.6346H0V0.365385H4.6585V7.74197H14.0538ZM35.4484 16.7227C31.7075 16.7227 28.3717 13.9559 28.3717 9.22559C28.3717 5.56448 30.5349 2.25132 34.8915 2.25132C38.6005 2.25132 41.937 5.0165 41.937 9.80289C41.937 15.2226 37.8887 16.7227 35.4484 16.7227ZM46.962 9.10127C46.8857 5.12462 44.6947 3.17332 43.3958 2.19279C40.7382 0.145542 36.6234 0 35.8821 0C33.1301 0 30.0027 0.419535 27.2524 2.39284C24.7629 4.17821 23.482 6.67185 23.482 9.60128C23.482 13.9259 27.0244 19 34.9351 19C41.236 19 47.0898 15.7722 46.962 9.10127Z" fill="white"/>
</svg>
