<svg width="59" height="37" viewBox="0 0 59 37" fill="none" xmlns="http://www.w3.org/2000/svg">
<path fill-rule="evenodd" clip-rule="evenodd" d="M37.5295 0.00164773L37.5123 0C37.5745 0.995058 38.3262 1.85614 39.4157 2.31358L39.4248 2.31853C45.0916 4.3145 49.5396 7.94649 51.7096 12.4082C53.7561 12.4818 55.7054 12.62 57.5432 12.8218C54.5978 6.64297 47.0522 1.79409 37.5295 0.00164773ZM5.82953 19.9343C5.77527 19.4435 5.74408 18.9469 5.74408 18.4446C5.74408 11.3072 11.3878 5.15152 19.5335 2.31785L19.545 2.31458C20.6377 1.85983 21.3914 1.00841 21.4539 0.0217274L21.4375 0.023416C9.05696 2.3228 0 9.70025 0 18.4446C0 19.7729 0.210308 21.0693 0.609268 22.3206C1.2817 21.969 1.98538 21.6191 2.72025 21.2765C3.70298 20.8193 4.74161 20.3719 5.82953 19.9343ZM52.614 14.5318C54.7449 14.6989 56.7276 14.95 58.531 15.2818C58.8379 16.3807 59 17.5139 59 18.6707C59 20.6418 58.5333 22.5413 57.673 24.3307C54.7325 30.4384 47.167 35.2318 37.6155 37L37.6115 36.9935C37.6827 35.9435 38.5446 35.0476 39.7628 34.6294H39.7652C47.1114 32.0036 52.3635 26.6589 53.1634 20.3516C37.6017 16.953 15.9258 20.7935 6.93424 24.4554C9.0168 28.9335 13.4511 32.597 19.1405 34.6294H19.1413C20.361 35.0476 21.2213 35.9435 21.2934 36.9935L21.2885 37C11.5791 35.2017 3.92258 30.2786 1.0926 24.025C1.6837 23.6924 2.30989 23.3639 2.96481 23.0402C3.90628 22.5739 4.91067 22.1174 5.97405 21.6714C12.1111 19.1035 20.2121 16.9097 29.2797 15.5728C37.8555 14.3092 45.9555 14.0092 52.614 14.5318ZM21.9276 5.12871C19.0277 5.12871 16.413 5.87911 14.5679 7.0798C14.7362 7.27072 15.0631 7.40008 15.4398 7.40008C15.6065 7.40008 15.7617 7.37353 15.8998 7.32997C15.9129 7.32451 15.984 7.30037 15.9423 7.31594C16.8943 7.03537 17.9606 6.87727 19.0857 6.87727C20.6472 6.87727 22.0911 7.18037 23.2783 7.69307C24.8406 7.53956 26.4618 7.45543 28.1263 7.45543C28.7105 7.45543 29.2899 7.47025 29.8642 7.48893C28.0078 6.05204 25.1438 5.12871 21.9276 5.12871ZM11.3891 12.0233C15.4154 10.0245 20.888 8.79208 26.9274 8.79208C33.2229 8.79208 38.9065 10.13 42.9753 12.2814C39.8881 12.4236 36.6765 12.6897 33.3816 13.087C30.3983 12.0655 26.7597 11.463 22.8258 11.463C18.5059 11.463 14.5426 12.1895 11.4136 13.3987C11.3942 13.4057 11.3748 13.4134 11.3555 13.4212C11.3462 13.4249 11.337 13.4286 11.3278 13.4322C11.1281 13.5081 10.8958 13.5545 10.6454 13.5545C10.131 13.5545 9.69009 13.3682 9.46914 13.0981C10.0622 12.7185 10.7076 12.3613 11.3891 12.0233Z" fill="white"/>
</svg>
